<svg width="47" height="47" viewBox="0 0 47 47" fill="none" xmlns="http://www.w3.org/2000/svg">
<path fill-rule="evenodd" clip-rule="evenodd" d="M23.5 3C12.1782 3 3 12.1782 3 23.5C3 34.8218 12.1782 44 23.5 44C34.8218 44 44 34.8218 44 23.5C44 12.1782 34.8218 3 23.5 3ZM0 23.5C0 10.5213 10.5213 0 23.5 0C36.4787 0 47 10.5213 47 23.5C47 36.4787 36.4787 47 23.5 47C10.5213 47 0 36.4787 0 23.5Z" fill="#2926E2"/>
<path fill-rule="evenodd" clip-rule="evenodd" d="M9.95938 26.1008C10.7321 25.8022 11.6006 26.1867 11.8992 26.9594C14.4074 33.4512 23.5926 33.4512 26.1008 26.9594C26.3993 26.1867 27.2678 25.8022 28.0406 26.1008C28.8133 26.3994 29.1977 27.2679 28.8992 28.0406C25.4025 37.0908 12.5975 37.0908 9.10078 28.0406C8.80221 27.2679 9.18662 26.3994 9.95938 26.1008Z" fill="#2926E2"/>
<path d="M17.5 18.5C17.5 19.6046 16.6046 20.5 15.5 20.5C14.3954 20.5 13.5 19.6046 13.5 18.5C13.5 17.3954 14.3954 16.5 15.5 16.5C16.6046 16.5 17.5 17.3954 17.5 18.5Z" fill="#2926E2"/>
<path d="M24.5 18.5C24.5 19.6046 23.6046 20.5 22.5 20.5C21.3954 20.5 20.5 19.6046 20.5 18.5C20.5 17.3954 21.3954 16.5 22.5 16.5C23.6046 16.5 24.5 17.3954 24.5 18.5Z" fill="#2926E2"/>
</svg>
