<svg xmlns="http://www.w3.org/2000/svg" viewBox="0 0 43.91 44.03"><defs><style>.cls-1{fill:none;stroke:#85c0e5;stroke-linecap:round;stroke-width:3px;}</style></defs><g id="Camada_2" data-name="Camada 2"><g id="Camada_1-2" data-name="Camada 1"><path class="cls-1" d="M31.05,17.24,8,40.43A3.78,3.78,0,1,1,2.67,35l24-22.86a1.93,1.93,0,0,0,.57-1.7l0-.19a7.58,7.58,0,0,1,8.62-8.69,1,1,0,0,1,.53,1.6L33.62,6a.69.69,0,0,0-.18.57,4.66,4.66,0,0,0,3.94,4,.69.69,0,0,0,.57-.18L40.7,7.56a1,1,0,0,1,1.62.53,7.65,7.65,0,0,1-8.71,8.71l-.84-.13A2,2,0,0,0,31.05,17.24Z"/><path class="cls-1" d="M23.71,31.2,34.12,41.47a3.72,3.72,0,0,0,5.21,0h0a3.72,3.72,0,0,0,0-5.32L28.49,25.7"/><path class="cls-1" d="M12.33,18.37,7.81,12.93a2.07,2.07,0,0,0-.86-.6l-2.79-1a2,2,0,0,1-1.3-1.59L2.23,5.46A2,2,0,0,1,5,3.34L9,5.1a2,2,0,0,1,1.18,1.7l.17,2.46a2,2,0,0,0,.71,1.41l4.84,4"/></g></g></svg>