<svg width="45" height="45" viewBox="0 0 45 45" fill="none" xmlns="http://www.w3.org/2000/svg">
<path fill-rule="evenodd" clip-rule="evenodd" d="M25.8984 11.48C24.9253 5.41058 30.1406 0.149812 36.2182 1.0703C38.2003 1.3705 39.0002 3.79606 37.5855 5.21638L35.1293 7.68244C35.4226 8.75907 36.2649 9.60662 37.3327 9.9032L39.7632 7.46302C41.1873 6.03325 43.6323 6.83481 43.9335 8.83019C44.8538 14.9275 39.6059 20.1729 33.509 19.2494L32.6724 19.1227C32.5149 19.0989 32.3556 19.1514 32.2432 19.2642L9.14603 42.4539C7.08291 44.5253 3.72917 44.5253 1.66606 42.4539C-0.424883 40.3546 -0.378749 36.9459 1.76826 34.9039L25.8008 12.0473C25.9032 11.9499 25.9511 11.8083 25.9287 11.6688L25.8984 11.48ZM34.5915 3.9712C31.0552 4.11652 28.273 7.34062 28.8606 11.005L28.8909 11.1938C29.0698 12.3098 28.6873 13.4422 27.8683 14.2211L3.83573 37.0778C2.90894 37.9592 2.88902 39.4307 3.79162 40.3369C4.68219 41.231 6.12989 41.231 7.02047 40.3369L30.1177 17.1472C30.9042 16.3575 32.0197 15.9897 33.1216 16.1566L33.9583 16.2833C37.6643 16.8446 40.9039 14.0157 41.0339 10.4384L39.14 12.3399C38.6578 12.824 37.9753 13.052 37.299 12.955C34.5869 12.566 32.4636 10.4194 32.0792 7.71748C31.9838 7.04718 32.2068 6.36547 32.6892 5.88115L34.5915 3.9712Z" fill="#2926E2"/>
<path fill-rule="evenodd" clip-rule="evenodd" d="M27.5373 25.6243C26.9616 26.22 26.9778 27.1696 27.5735 27.7453L38.3896 38.1978C39.2831 39.0612 39.2901 40.4911 38.4052 41.3633C37.5442 42.2121 36.1611 42.2121 35.3 41.3633L24.8863 31.0984C24.2963 30.5168 23.3466 30.5237 22.765 31.1137C22.1835 31.7036 22.1903 32.6534 22.7803 33.2349L33.194 43.4999C35.2231 45.4999 38.4822 45.4999 40.5112 43.4999C42.5964 41.4445 42.5798 38.0752 40.4743 36.0405L29.6583 25.588C29.0626 25.0123 28.113 25.0286 27.5373 25.6243Z" fill="#2926E2"/>
<path fill-rule="evenodd" clip-rule="evenodd" d="M4.54115 5.6739C4.18124 5.51442 3.78674 5.81412 3.84388 6.20362L4.47123 10.4794C4.49798 10.6617 4.62287 10.8146 4.79623 10.8771L7.58387 11.883C8.16993 12.0945 8.68892 12.4585 9.08724 12.9376L13.6074 18.3744C14.1371 19.0114 14.05 19.9571 13.413 20.4867C12.776 21.0164 11.8302 20.9293 11.3006 20.2923L6.7804 14.8556L7.93382 13.8966L6.7804 14.8556C6.7235 14.7871 6.64936 14.7351 6.56564 14.7049L3.778 13.699C2.56451 13.2612 1.69028 12.1913 1.50301 10.9149L0.875662 6.63912C0.475636 3.91267 3.23718 1.81474 5.75654 2.93113L9.74379 4.69797C10.9331 5.22498 11.732 6.3681 11.8182 7.66608L11.9816 10.1287C11.9907 10.2653 12.0553 10.3921 12.1604 10.4797L17.0019 14.5143C17.6384 15.0447 17.7243 15.9905 17.194 16.6269C16.6637 17.2634 15.7178 17.3493 15.0814 16.819L10.2399 12.7844C9.50401 12.1712 9.05163 11.2832 8.98819 10.3274L8.82474 7.86477C8.81243 7.67934 8.6983 7.51604 8.5284 7.44075L4.54115 5.6739Z" fill="#2926E2"/>
</svg>
