<svg xmlns="http://www.w3.org/2000/svg" viewBox="0 0 47 43"><defs><style>.cls-1{fill:none;stroke:#dda07f;stroke-linecap:round;stroke-width:3px;}</style></defs><g id="Camada_2" data-name="Camada 2"><g id="Camada_1-2" data-name="Camada 1"><path class="cls-1" d="M36.33,7.2H18m18.33,0H43.5a2,2,0,0,1,2,2v5.46M36.33,7.2H18m18.33,0V3.5a2,2,0,0,0-2-2H20a2,2,0,0,0-2,2V7.2m0,0H10.83a2,2,0,0,0-2,2v5.46m0,0V32.13a2,2,0,0,0,2,2H43.5a2,2,0,0,0,2-2V14.66m-36.67,0,8.57,2.95a30,30,0,0,0,19.54,0l8.56-2.95"/><path class="cls-1" d="M1.5,16.24V39.5a2,2,0,0,0,2,2H34"/></g></g></svg>