<svg width="47" height="43" viewBox="0 0 47 43" fill="none" xmlns="http://www.w3.org/2000/svg">
<path fill-rule="evenodd" clip-rule="evenodd" d="M16.5 3.5C16.5 1.56701 18.067 0 20 0H34.3334C36.2664 0 37.8334 1.567 37.8334 3.5V5.69758H43.5C45.433 5.69758 47 7.26458 47 9.19758V32.1316C47 34.0646 45.433 35.6316 43.5 35.6316H10.8334C8.90038 35.6316 7.33337 34.0646 7.33337 32.1316V9.19758C7.33337 7.26458 8.90038 5.69758 10.8334 5.69758H16.5V3.5ZM34.8334 5.69758V3.5C34.8334 3.22386 34.6095 3 34.3334 3H20C19.7239 3 19.5 3.22386 19.5 3.5V5.69758H34.8334ZM10.8334 8.69758C10.5572 8.69758 10.3334 8.92143 10.3334 9.19758V13.5881L17.8839 16.1893C23.899 18.2614 30.4344 18.2614 36.4495 16.1893L44 13.5881V9.19758C44 8.92144 43.7762 8.69758 43.5 8.69758H10.8334ZM44 16.7612L37.4266 19.0257C30.7784 21.316 23.555 21.316 16.9068 19.0257L10.3334 16.7612V32.1316C10.3334 32.4077 10.5572 32.6316 10.8334 32.6316H43.5C43.7762 32.6316 44 32.4077 44 32.1316V16.7612Z" fill="#2926E2"/>
<path fill-rule="evenodd" clip-rule="evenodd" d="M1.5 14.7368C2.32843 14.7368 3 15.4084 3 16.2368V39.5C3 39.7761 3.22386 40 3.5 40H33.9762C34.8046 40 35.4762 40.6716 35.4762 41.5C35.4762 42.3284 34.8046 43 33.9762 43H3.5C1.567 43 0 41.433 0 39.5V16.2368C0 15.4084 0.671573 14.7368 1.5 14.7368Z" fill="#2926E2"/>
</svg>
