<svg width="46" height="46" viewBox="0 0 46 46" fill="none" xmlns="http://www.w3.org/2000/svg">
<path fill-rule="evenodd" clip-rule="evenodd" d="M45.047 0.925822C45.4606 1.32896 45.606 1.93378 45.4208 2.48087L31.6714 43.1057C30.7955 45.6937 27.4244 46.3249 25.6715 44.2292L17.8972 34.9349L14.5051 40.1256C12.9196 42.5518 9.14934 41.4292 9.14934 38.5309V28.3384L1.48811 21.4995C-0.483153 19.7399 0.131809 16.5141 2.61219 15.6031L43.4828 0.59196C44.025 0.39283 44.6333 0.52268 45.047 0.925822ZM12.1493 28.4361V38.2465L16.5227 31.5541L27.0284 17.7502L12.1493 28.4361ZM35.3926 11.7138L19.6675 32.3756L27.9726 42.3044C28.223 42.6038 28.7046 42.5136 28.8297 42.1439L40.7515 6.91912L35.3926 11.7138ZM37.1539 6.11241L3.64648 18.4192C3.29214 18.5493 3.20429 19.0101 3.4859 19.2615L10.7511 25.7468L33.3454 9.51987L37.1539 6.11241Z" fill="#2926E2"/>
</svg>
