<svg width="15" height="15" viewBox="0 0 15 15" fill="none" xmlns="http://www.w3.org/2000/svg">
<path d="M1 14H13" stroke="#2926E2" stroke-width="2" stroke-linecap="round" stroke-linejoin="round"/>
<path d="M12.5348 14.2227L7.8599 12.2839L6.51885 10.8455L2.17294 6.18398L1.9266 5.91976C0.862561 4.77845 0.925197 2.99066 2.06651 1.92662C3.20781 0.862577 4.9956 0.925213 6.05964 2.06652L6.30598 2.33074L10.6519 6.99223L11.9929 8.43067L13.5999 13.2298C13.8178 13.8806 13.1688 14.4857 12.5348 14.2227Z" fill="white"/>
<path d="M7.8599 12.2839L12.5348 14.2227C13.1688 14.4857 13.8178 13.8806 13.5999 13.2298L11.9929 8.43067M7.8599 12.2839L11.9929 8.43067M7.8599 12.2839L6.51885 10.8455M11.9929 8.43067L10.6519 6.99223M6.51885 10.8455L10.6519 6.99223M6.51885 10.8455L2.17294 6.18398M10.6519 6.99223L6.30598 2.33074M2.17294 6.18398L1.9266 5.91976C0.862561 4.77845 0.925197 2.99066 2.06651 1.92662V1.92662C3.20781 0.862577 4.9956 0.925213 6.05964 2.06652L6.30598 2.33074M2.17294 6.18398L6.30598 2.33074" stroke="#2926E2"/>
</svg>
