<svg xmlns="http://www.w3.org/2000/svg" viewBox="0 0 193.52 188.73"><defs><style>.cls-1{fill:#461022;}.cls-2{fill:#ee3968;}</style></defs><g id="Camada_2" data-name="Camada 2"><g id="Camada_1-2" data-name="Camada 1"><g id="UfoWGt.tif"><path class="cls-1" d="M161.48,188.73H31.67c-.06-.19-.22-.17-.37-.18a30.84,30.84,0,0,1-10-2.42C10,181.18,3,172.66.54,160.53A13.79,13.79,0,0,0,0,157.61V31.12c.18-.07.17-.23.18-.38A32.43,32.43,0,0,1,1.31,24.8,34.16,34.16,0,0,1,33.72,0Q96.78,0,159.84,0a30.47,30.47,0,0,1,6,.62,34.2,34.2,0,0,1,27.64,33.65q0,60,0,120a32.65,32.65,0,0,1-3.18,14.5C185.15,179.48,176.72,186,165,188.2A28.57,28.57,0,0,0,161.48,188.73ZM142.88,82.94h-.07q0-20.11,0-40.22c0-1.22-.1-1.33-1.29-1.33H126.33c-1.49,0-1.5,0-1.5,1.48q0,12,0,23.94c0,.65,0,1-.88.9a42.38,42.38,0,0,0-17.79,1.91c-11.53,4-19,11.83-22.22,23.66a37.87,37.87,0,0,0-.66,14.07,30.18,30.18,0,0,0,4.23,12.9c5.63,9,14.23,12.95,24.38,14.15a55.4,55.4,0,0,0,12.21-.14,64.74,64.74,0,0,0,18-4.42,1.62,1.62,0,0,0,1.19-1.81c-.15-2.08-.36-4.16-.36-6.24C142.86,108.84,142.88,95.89,142.88,82.94ZM52.31,91v40.68a8.47,8.47,0,0,0,0,1,1,1,0,0,0,1.16,1H69a1.14,1.14,0,0,0,1.28-1.23c0-.3,0-.61,0-.92V50c0-1.44-.29-1.72-1.72-1.72H54.16c-1.67,0-1.85.18-1.85,1.83Z"/><path class="cls-2" d="M142.88,82.94c0,13,0,25.9,0,38.85,0,2.08.21,4.16.36,6.24a1.62,1.62,0,0,1-1.19,1.81,64.74,64.74,0,0,1-18,4.42,55.4,55.4,0,0,1-12.21.14c-10.15-1.2-18.75-5.14-24.38-14.15a30.18,30.18,0,0,1-4.23-12.9A37.87,37.87,0,0,1,84,93.28c3.19-11.83,10.69-19.69,22.22-23.66A42.38,42.38,0,0,1,124,67.71c.83.08.88-.25.88-.9q0-12,0-23.94c0-1.47,0-1.48,1.5-1.48h15.19c1.19,0,1.29.11,1.29,1.33q0,20.12,0,40.22Zm-18,17.87c0-5.64,0-11.28,0-16.92,0-.67-.2-.91-.82-1a20.61,20.61,0,0,0-10.79.73c-4.88,1.77-8.72,4.8-10.62,9.75a22.35,22.35,0,0,0-.47,13.82c1,4,3,7.37,6.69,9.51,4.82,2.81,10.06,2.68,15.36,2,.62-.07.64-.48.64-1C124.82,112.09,124.83,106.45,124.83,100.81Z"/><path class="cls-2" d="M52.31,91V50.11c0-1.65.18-1.82,1.85-1.83H68.61c1.43,0,1.72.28,1.72,1.72v81.54c0,.31,0,.62,0,.92A1.14,1.14,0,0,1,69,133.69H53.49a1,1,0,0,1-1.16-1,8.47,8.47,0,0,1,0-1Z"/><path class="cls-1" d="M124.83,100.81c0,5.64,0,11.28,0,16.92,0,.51,0,.92-.64,1-5.3.64-10.54.77-15.36-2-3.65-2.14-5.67-5.51-6.69-9.51a22.35,22.35,0,0,1,.47-13.82c1.9-4.95,5.74-8,10.62-9.75A20.61,20.61,0,0,1,124,82.87c.62.11.83.35.82,1C124.81,89.53,124.83,95.17,124.83,100.81Z"/></g></g></g></svg>