<svg width="43" height="44" viewBox="0 0 43 44" fill="none" xmlns="http://www.w3.org/2000/svg">
<path d="M32 11L32.5 10.5L33 11L32.4999 11.5M11.5 2H31.5C37.0228 2 41.5 6.47715 41.5 12V32C41.5 37.5228 37.0228 42 31.5 42H11.5C5.97715 42 1.5 37.5228 1.5 32V12C1.5 6.47715 5.97715 2 11.5 2ZM29 20.74C29.2468 22.4045 28.9625 24.1044 28.1875 25.598C27.4125 27.0916 26.1862 28.3028 24.6832 29.0593C23.1802 29.8159 21.4769 30.0792 19.8155 29.8119C18.1542 29.5445 16.6195 28.7602 15.4296 27.5703C14.2398 26.3805 13.4554 24.8457 13.1881 23.1844C12.9208 21.5231 13.1841 19.8198 13.9406 18.3167C14.6971 16.8137 15.9083 15.5875 17.4019 14.8125C18.8955 14.0375 20.5955 13.7532 22.26 14C23.9578 14.2518 25.5297 15.0429 26.7433 16.2566C27.957 17.4703 28.7482 19.0422 29 20.74Z" stroke="#1E1E1E" stroke-width="3" stroke-linecap="round" stroke-linejoin="round"/>
</svg>
