<svg width="49" height="47" viewBox="0 0 49 47" fill="none" xmlns="http://www.w3.org/2000/svg">
<path d="M5.60793 44.9807L5.75496 43.488L5.60793 44.9807ZM10.9807 41.3921L12.4735 41.5391L10.9807 41.3921ZM7.39207 44.9807L7.24504 43.488L7.39207 44.9807ZM23.6079 44.9807L23.755 43.488L23.6079 44.9807ZM20.0193 41.3921L18.5265 41.5391L20.0193 41.3921ZM28.9807 41.3921L30.4735 41.5391L28.9807 41.3921ZM25.3921 44.9807L25.245 43.488L25.3921 44.9807ZM46.9807 41.3921L45.488 41.245L46.9807 41.3921ZM43.3921 44.9807L43.245 43.488L43.3921 44.9807ZM5.60793 17.8614L5.46091 16.3686L5.60793 17.8614ZM7.39207 17.8614L7.53909 16.3686L7.39207 17.8614ZM10.9807 21.45L9.48796 21.5971L10.9807 21.45ZM41.6079 44.9807L41.755 43.488L41.6079 44.9807ZM38.0193 41.3921L39.512 41.245L38.0193 41.3921ZM33.5 17.0789C36.6798 17.0789 39.7311 18.3494 41.9822 20.6137L44.1097 18.4986C41.2973 15.6698 37.4811 14.0789 33.5 14.0789V17.0789ZM41.9822 20.6137C44.2336 22.8783 45.5 25.9515 45.5 29.1579H48.5C48.5 25.1615 46.9218 21.3271 44.1097 18.4986L41.9822 20.6137ZM45.5 29.1579V40.5H48.5V29.1579H45.5ZM39.5 40.5V29.1579H36.5V40.5H39.5ZM39.5 29.1579C39.5 27.5624 38.87 26.0306 37.7457 24.8997L35.6182 27.0149C36.1818 27.5818 36.5 28.3525 36.5 29.1579H39.5ZM37.7457 24.8997C36.6212 23.7686 35.0941 23.1316 33.5 23.1316V26.1316C34.2928 26.1316 35.0549 26.4483 35.6182 27.0149L37.7457 24.8997ZM33.5 23.1316C31.9059 23.1316 30.3788 23.7686 29.2543 24.8997L31.3818 27.0149C31.9451 26.4483 32.7072 26.1316 33.5 26.1316V23.1316ZM29.2543 24.8997C28.13 26.0306 27.5 27.5624 27.5 29.1579H30.5C30.5 28.3525 30.8182 27.5818 31.3818 27.0149L29.2543 24.8997ZM27.5 29.1579V40.5H30.5V29.1579H27.5ZM21.5 40.5V29.1579H18.5V40.5H21.5ZM21.5 29.1579C21.5 25.9515 22.7664 22.8783 25.0178 20.6137L22.8903 18.4986C20.0782 21.3271 18.5 25.1615 18.5 29.1579H21.5ZM25.0178 20.6137C27.2689 18.3494 30.3202 17.0789 33.5 17.0789V14.0789C29.5189 14.0789 25.7027 15.6698 22.8903 18.4986L25.0178 20.6137ZM9.5 22.3421V40.5H12.5V22.3421H9.5ZM3.5 40.5V22.3421H0.5V40.5H3.5ZM9.5 6.52632C9.5 8.20596 8.14862 9.55263 6.5 9.55263V12.5526C9.82194 12.5526 12.5 9.8463 12.5 6.52632H9.5ZM6.5 9.55263C4.85138 9.55263 3.5 8.20596 3.5 6.52632H0.5C0.5 9.8463 3.17806 12.5526 6.5 12.5526V9.55263ZM3.5 6.52632C3.5 4.84667 4.85138 3.5 6.5 3.5V0.5C3.17806 0.5 0.5 3.20633 0.5 6.52632H3.5ZM6.5 3.5C8.14862 3.5 9.5 4.84667 9.5 6.52632H12.5C12.5 3.20633 9.82194 0.5 6.5 0.5V3.5ZM6.5 43.5C5.99997 43.5 5.8587 43.4982 5.75496 43.488L5.46091 46.4735C5.74829 46.5018 6.07135 46.5 6.5 46.5V43.5ZM0.5 40.5C0.5 40.9286 0.498179 41.2517 0.526484 41.5391L3.51204 41.245C3.50182 41.1413 3.5 41 3.5 40.5H0.5ZM5.75496 43.488C4.56801 43.3711 3.62894 42.432 3.51204 41.245L0.526484 41.5391C0.783672 44.1504 2.84963 46.2163 5.46091 46.4735L5.75496 43.488ZM9.5 40.5C9.5 41 9.49818 41.1413 9.48796 41.245L12.4735 41.5391C12.5018 41.2517 12.5 40.9286 12.5 40.5H9.5ZM6.5 46.5C6.92865 46.5 7.25171 46.5018 7.53909 46.4735L7.24504 43.488C7.1413 43.4982 7.00003 43.5 6.5 43.5V46.5ZM9.48796 41.245C9.37106 42.432 8.43199 43.3711 7.24504 43.488L7.53909 46.4735C10.1504 46.2163 12.2163 44.1504 12.4735 41.5391L9.48796 41.245ZM24.5 43.5C24 43.5 23.8587 43.4982 23.755 43.488L23.4609 46.4735C23.7483 46.5018 24.0714 46.5 24.5 46.5V43.5ZM18.5 40.5C18.5 40.9286 18.4982 41.2517 18.5265 41.5391L21.512 41.245C21.5018 41.1413 21.5 41 21.5 40.5H18.5ZM23.755 43.488C22.568 43.3711 21.6289 42.432 21.512 41.245L18.5265 41.5391C18.7837 44.1504 20.8496 46.2163 23.4609 46.4735L23.755 43.488ZM27.5 40.5C27.5 41 27.4982 41.1413 27.488 41.245L30.4735 41.5391C30.5018 41.2517 30.5 40.9286 30.5 40.5H27.5ZM24.5 46.5C24.9286 46.5 25.2517 46.5018 25.5391 46.4735L25.245 43.488C25.1413 43.4982 25 43.5 24.5 43.5V46.5ZM27.488 41.245C27.3711 42.432 26.432 43.3711 25.245 43.488L25.5391 46.4735C28.1504 46.2163 30.2163 44.1504 30.4735 41.5391L27.488 41.245ZM45.5 40.5C45.5 41 45.4982 41.1413 45.488 41.245L48.4735 41.5391C48.5018 41.2517 48.5 40.9286 48.5 40.5H45.5ZM42.5 46.5C42.9286 46.5 43.2517 46.5018 43.5391 46.4735L43.245 43.488C43.1413 43.4982 43 43.5 42.5 43.5V46.5ZM45.488 41.245C45.3711 42.432 44.432 43.3711 43.245 43.488L43.5391 46.4735C46.1504 46.2163 48.2163 44.1504 48.4735 41.5391L45.488 41.245ZM6.5 16.3421C6.07135 16.3421 5.74829 16.3403 5.46091 16.3686L5.75496 19.3541C5.8587 19.3439 5.99997 19.3421 6.5 19.3421V16.3421ZM3.5 22.3421C3.5 21.8421 3.50182 21.7008 3.51204 21.5971L0.526484 21.303C0.498179 21.5904 0.5 21.9135 0.5 22.3421H3.5ZM5.46091 16.3686C2.84963 16.6258 0.783672 18.6917 0.526484 21.303L3.51204 21.5971C3.62894 20.4101 4.56801 19.471 5.75496 19.3541L5.46091 16.3686ZM6.5 19.3421C7.00003 19.3421 7.1413 19.3439 7.24504 19.3541L7.53909 16.3686C7.25171 16.3403 6.92865 16.3421 6.5 16.3421V19.3421ZM12.5 22.3421C12.5 21.9135 12.5018 21.5904 12.4735 21.303L9.48796 21.5971C9.49818 21.7008 9.5 21.8421 9.5 22.3421H12.5ZM7.24504 19.3541C8.43199 19.471 9.37106 20.4101 9.48796 21.5971L12.4735 21.303C12.2163 18.6917 10.1504 16.6258 7.53909 16.3686L7.24504 19.3541ZM42.5 43.5C42 43.5 41.8587 43.4982 41.755 43.488L41.4609 46.4735C41.7483 46.5018 42.0714 46.5 42.5 46.5V43.5ZM36.5 40.5C36.5 40.9286 36.4982 41.2517 36.5265 41.5391L39.512 41.245C39.5018 41.1413 39.5 41 39.5 40.5H36.5ZM41.755 43.488C40.568 43.3711 39.6289 42.432 39.512 41.245L36.5265 41.5391C36.7837 44.1504 38.8496 46.2163 41.4609 46.4735L41.755 43.488Z" fill="black"/>
</svg>
