<svg width="41" height="41" viewBox="0 0 41 41" fill="none" xmlns="http://www.w3.org/2000/svg">
<path d="M28.7445 37.0613C25.1425 38.8545 21.0541 39.4244 17.099 38.6847C13.144 37.945 9.53789 35.936 6.82741 32.9623C4.11693 29.9886 2.44983 26.2123 2.07883 22.2058C1.70783 18.1993 2.65315 14.1811 4.77149 10.7602C6.88984 7.33935 10.0657 4.70238 13.8177 3.24901C17.5697 1.79565 21.6932 1.60514 25.5632 2.70636C29.4332 3.80758 32.8387 6.14048 35.2635 9.35144C37.6882 12.5624 39 16.4764 39 20.5C40 30.5 28 30 28.9091 20.5M28.9091 20.5C28.9091 18.3479 28.0881 16.1958 26.4462 14.5539C23.1622 11.2699 17.8379 11.2699 14.5539 14.5539C11.27 17.8378 11.27 23.1622 14.5539 26.4461C17.8379 29.7301 23.1622 29.7301 26.4462 26.4461C28.0881 24.8041 28.9091 22.6521 28.9091 20.5Z" stroke="black" stroke-width="2.6" stroke-linecap="round" stroke-linejoin="round"/>
</svg>
