<svg xmlns="http://www.w3.org/2000/svg" viewBox="0 0 256 256"><defs><style>.cls-1{fill:#fff;}.cls-2{fill:#8b9eae;}.cls-3{fill:#f0f0f2;}.cls-4{fill:#ebf2f7;}.cls-5{fill:#386980;}.cls-6{fill:#80c5de;}.cls-7{fill:#3aa5cc;}.cls-8{fill:#fdfdfe;}.cls-9{fill:#feffff;}.cls-10{fill:#396a81;}</style></defs><g id="Camada_2" data-name="Camada 2"><g id="Camada_1-2" data-name="Camada 1"><rect class="cls-1" width="256" height="256" rx="60"/><g id="ALoA6n.tif"><path class="cls-1" d="M200.55,26.54c7.3,0,14.59,0,21.89,0,.82,0,1,.17,1,1q0,15.48,0,31a2.11,2.11,0,0,1-.45.28,81.81,81.81,0,0,1-8.72.13,15.71,15.71,0,0,1-4.74-.22c-.71-.6-.52-1.42-.52-2.17,0-5.9-.09-11.8,0-17.7.09-5.46-2.1-9.33-7.33-11.28C201.31,27.16,200.58,27.24,200.55,26.54Z"/><path class="cls-2" d="M223.11,58.49h.29V228.92a3,3,0,0,1-1.49.12q-80.55,0-161.1,0a3.8,3.8,0,0,1-1.5-.1l-.85-.07c.19-.64.76-.59,1.24-.64a17.66,17.66,0,0,1,2.06,0H219.87c3,0,2.81.21,2.81-2.86q0-82,0-164C222.69,60.34,222.45,59.34,223.11,58.49Z"/><path class="cls-3" d="M59.31,228.94H223.4v.27H60.89C60.36,229.18,59.78,229.38,59.31,228.94Z"/><path class="cls-4" d="M200.55,26.54c.23.44.88.09,1.09.57a1.44,1.44,0,0,1-1.29.32,52.5,52.5,0,0,0-6.87-.17H66.62A5.68,5.68,0,0,1,63.91,27l-.19-.2c0-.08,0-.16,0-.23Z"/><path class="cls-5" d="M223.11,58.49q0,82.79,0,165.56c0,1.19,0,2.39,0,3.58,0,.78-.24,1.1-1,1-.32,0-.64,0-1,0q-80.1,0-160.19,0c-.83,0-1.72-.32-2.53.2-5-1.23-8.74-5-8.73-10.6,0-13.53,0-27.06-.08-40.59-.09-.68.41-1,.86-1.27,4.1-2.5,8.18-5,12.33-7.45a3.38,3.38,0,0,1,1.16-.43,21.46,21.46,0,0,1,2.89-.08H198.32c3,0,6-.42,9.07-.28,1,0,1.43-.44,1.49-1.39,0-.74,0-1.47,0-2.2q0-51.69,0-103.37c0-.93-.25-1.94.44-2.78Z"/><path class="cls-6" d="M63.46,168.91l-12.39,7.55a3,3,0,0,0-1.42,1.22c-2.07.66-3.77,2-5.61,3.09-3.64,2.12-7.21,4.34-10.8,6.52-.51-.45-.31-.94-.31-1.36q0-69.59,0-139.16a2.23,2.23,0,0,1,1.29-2.18q14.1-8.42,28.18-16.89c.46-.28.9-.62,1.35-.93a.75.75,0,0,1,0,.15,1.72,1.72,0,0,1,.42,1.27c0,.46,0,.91,0,1.37q0,68.21,0,136.41C64.15,167,64.48,168.12,63.46,168.91Z"/><path class="cls-7" d="M63.46,168.91a3.89,3.89,0,0,0,.26-2v-140c.64,0,1.28-.05,1.92-.05H198.08c1.19,0,2.38.15,3.56.23,5.49,1.81,7.85,6.34,7.72,11.29-.17,6.67,0,13.35,0,20,0,.69-.05,1.38-.05,2.06V166.05c0,2.61,0,2.59-2.61,2.62-47.24.43-94.49.07-141.73.19C64.47,168.86,64,168.89,63.46,168.91Z"/><path class="cls-1" d="M122.22,212.66c-3.73,0-3.73,0-4.75-3.58-.85-3-.85-3-4-3-1.51,0-3,0-4.54,0-.87,0-1.32.18-1.5,1.12-.3,1.53-.78,3-1.14,4.53-.15.6-.34,1-1.07.94-1.83,0-3.67,0-5.5,0-.8,0-1-.18-.8-1q4-13.92,8-27.86a1.09,1.09,0,0,1,1.27-.92c2.52,0,5,.07,7.56,0a1.45,1.45,0,0,1,1.71,1.26c2.62,8.83,5.29,17.65,8,26.47.64,2.12.64,2.12-1.63,2.12Z"/><path class="cls-8" d="M160.49,182.84c1.29,0,2.57,0,3.85,0a1.16,1.16,0,0,1,1.35,1q4.13,13.91,8.32,27.77c.22.73.19,1.12-.73,1.09-1.79,0-3.58-.07-5.37,0-.92,0-1.26-.39-1.46-1.22-.37-1.51-.83-3-1.23-4.51a1,1,0,0,0-1.14-.89c-2.38.06-4.76.06-7.15,0a1,1,0,0,0-1.19,1c-.34,1.52-.81,3-1.12,4.54-.16.77-.47,1.08-1.27,1.06-1.69,0-3.39,0-5.08,0-1.12,0-1.3-.32-1-1.36,1.77-6,3.47-11.95,5.19-17.93.9-3.13,1.81-6.25,2.65-9.39.23-.86.61-1.21,1.52-1.15C157.92,182.89,159.21,182.83,160.49,182.84Z"/><path class="cls-9" d="M149.42,182.84l-6.6,12.7c-.77,1.46-1.51,2.93-2.32,4.37a3.66,3.66,0,0,0-.35,1.86c0,3.21,0,6.42,0,9.63,0,1-.35,1.28-1.25,1.26-1.7,0-3.4-.06-5.09,0-1,0-1.13-.38-1.12-1.22,0-3.07,0-6.14,0-9.22a5.45,5.45,0,0,0-.7-2.74c-2.72-5.15-5.39-10.31-8.13-15.44-.48-.92-.49-1.28.69-1.24,1.78.06,3.57.06,5.36,0a1.47,1.47,0,0,1,1.61,1.11c1.49,3.55,3,7.07,4.57,10.61.09.19.23.37.45.73,1.38-3.17,2.88-6.12,3.93-9.23.87-2.57,2.2-3.71,4.94-3.23A24.49,24.49,0,0,0,149.42,182.84Z"/><path class="cls-1" d="M158.14,87.62c-.36,1.29-.73,2.58-1.06,3.88q-5.81,22.27-11.56,44.56c-.24.95-.65,1.21-1.59,1.21-5.14-.05-10.28-.09-15.42,0-1.45,0-1.94-.48-2.28-1.8-3-11.58-6-23.14-9.09-34.7q-1.77-6.71-3.58-13.4a5.71,5.71,0,0,0-.82-1.87v1.7q0,24.3,0,48.59c0,1.14-.3,1.48-1.45,1.46q-7-.09-13.9,0c-1.15,0-1.46-.3-1.46-1.45Q96,120,96,104.16q0-21.89-.07-43.77c0-1.3.31-1.71,1.66-1.7q10.8.09,21.61,0c1.14,0,1.55.35,1.82,1.44q7.41,29.87,14.92,59.73c.1.43.25.85.44,1.47a5.09,5.09,0,0,0,.82-2.11q7.88-29.59,15.7-59.22c.26-1,.62-1.31,1.64-1.3q10.59.06,21.19,0c1.09,0,1.39.29,1.39,1.38q0,37.92,0,75.85c0,1.16-.42,1.34-1.43,1.33-5.27,0-10.55,0-15.83,0-1.18,0-1.42-.38-1.42-1.48,0-15.33,0-30.65,0-46V87.67Z"/><path class="cls-10" d="M112.18,188.29l2.19,8.9c.2.84.38,1.7.58,2.54.13.58-.06.86-.69.85-1.47,0-2.93,0-4.4,0-.48,0-.82-.07-.67-.69q1.36-5.8,2.72-11.6Z"/><path class="cls-10" d="M160.27,188.09a13,13,0,0,1,1,3.19c.67,2.69,1.29,5.4,2,8.09.22.87.16,1.27-.88,1.22-1.37-.07-2.74,0-4.11,0-.51,0-.92,0-.75-.73C158.41,196.05,159.29,192.26,160.27,188.09Z"/></g></g></g></svg>